<svg xmlns:xlink="http://www.w3.org/1999/xlink" xmlns="http://www.w3.org/2000/svg" class="action-icon able-icon" aria-hidden="true" tabindex="-1" focusable="false" width="32"  height="32" ><defs><symbol viewBox="0 0 32 32" id="SupportPhone" xmlns="http://www.w3.org/2000/svg"><path d="M26.91 12.65a11 11 0 0 0-21.82 0A4.33 4.33 0 0 0 3 16.35v1.3A4.35 4.35 0 0 0 7.35 22 2.65 2.65 0 0 0 10 19.35v-4.7A2.65 2.65 0 0 0 7.35 12h-.12a9 9 0 0 1 17.54 0h-.12A2.65 2.65 0 0 0 22 14.65v4.7a2.65 2.65 0 0 0 1.62 2.44 9 9 0 0 1-5.27 3.88 2.51 2.51 0 1 0-.17 2v.08a11.07 11.07 0 0 0 7.7-6 4.33 4.33 0 0 0 3.12-4.1v-1.3a4.33 4.33 0 0 0-2.09-3.7ZM8 14.65v4.7a.65.65 0 0 1-.65.65A2.35 2.35 0 0 1 5 17.65v-1.3A2.35 2.35 0 0 1 7.35 14a.65.65 0 0 1 .65.65ZM16 27a.5.5 0 1 1 .5-.5.5.5 0 0 1-.5.5Zm11-9.35A2.35 2.35 0 0 1 24.65 20a.65.65 0 0 1-.65-.65v-4.7a.65.65 0 0 1 .65-.65A2.35 2.35 0 0 1 27 16.35Z"></path></symbol></defs>
                    <use xlink:href="#SupportPhone"></use>
                    
                  </svg>