<svg xmlns:xlink="http://www.w3.org/1999/xlink" xmlns="http://www.w3.org/2000/svg" viewBox="0 0 56 56" class="able-picto able-picto--blue" aria-hidden="true" focusable="false" width="56"  height="56" ><g class="shadeprimary" fill="#B2E2FB"><path d="M13.97 41.83c1.29.14 13.35.39 14.4-.22C10.07 39.11 9.45 37 9.45 29.56c-1.13.83-2.92 3.42-2.6 5.5.6 4 2.6 6.28 7.13 6.77Z" fill="#B2E2FB"></path></g><g class="strokeprimary" stroke="#0D54FF" fill="none"><path d="M12.97 27.67c-.34-.85-.52-1.78-.52-2.76 0-4.16 3.37-7.53 7.53-7.53 1.5 0 2.9.44 4.07 1.2a9.575 9.575 0 0 1 8.26-4.74c5.29 0 9.57 4.28 9.57 9.57v.28c4.2 1.02 7.32 4.7 7.32 9.09 0 5.18-4.33 9.37-9.68 9.37H14.09c-4.03 0-7.29-3.26-7.29-7.29 0-3.64 2.67-6.66 6.17-7.2Z" stroke="#0D54FF" fill="none"></path></g><g class="strokesecondary" stroke="#F96449" fill="none"><path d="m11.12 16.86-3.93-2.2m3.17-4.24 3.22 3.14m3.22-2.55-2.3-3.87" stroke="#F96449" fill="none"></path></g></svg>