<svg xmlns:xlink="http://www.w3.org/1999/xlink" xmlns="http://www.w3.org/2000/svg" viewBox="0 0 56 56" class="able-picto able-picto--blue" aria-hidden="true" focusable="false" width="56"  height="56" ><path d="M6 18.6v13.2c0 3.37 2.52 6.15 5.78 6.55.47.06.82.46.82.93v6.16c0 .75.84 1.2 1.46.78l9.58-6.38c.71-.48.47-1.58-.38-1.71C17.92 37.26 6 33.62 6 18.6" class="shadeprimary" fill="#B2E2FB"></path><g class="strokeprimary" stroke="#0D54FF" fill="none"><path d="M43.4 12H12.6C8.96 12 6 14.96 6 18.6v13.2c0 3.64 2.96 6.6 6.6 6.6v8.8l13.2-8.8h17.6c3.64 0 6.6-2.96 6.6-6.6V18.6c0-3.64-2.96-6.6-6.6-6.6Z" stroke="#0D54FF" fill="none"></path></g><g class="strokesecondary" stroke="#F96449" fill="none"><path d="M21.95 25.3c0 1.52-1.23 2.75-2.75 2.75s-2.75-1.23-2.75-2.75 1.23-2.75 2.75-2.75 2.75 1.23 2.75 2.75Z" stroke="#F96449" fill="none"></path><path d="M30.75 25.3c0 1.52-1.23 2.75-2.75 2.75s-2.75-1.23-2.75-2.75 1.23-2.75 2.75-2.75 2.75 1.23 2.75 2.75Z" stroke="#F96449" fill="none"></path><path d="M39.55 25.3c0 1.52-1.23 2.75-2.75 2.75s-2.75-1.23-2.75-2.75 1.23-2.75 2.75-2.75 2.75 1.23 2.75 2.75Z" stroke="#F96449" fill="none"></path></g></svg>