<svg xmlns:xlink="http://www.w3.org/1999/xlink" xmlns="http://www.w3.org/2000/svg" class="action-icon able-icon" aria-hidden="true" tabindex="-1" focusable="false" width="32"  height="32" ><defs><symbol viewBox="0 0 32 32" id="TelstraConnect" xmlns="http://www.w3.org/2000/svg"><path d="M26.74 22.75V8.03c0-1.53-1.25-2.78-2.78-2.78H9.26a3.16 3.16 0 0 0-2.99-2.17C4.52 3.08 3.1 4.5 3.1 6.25c0 1.4.91 2.57 2.17 2.99v14.71c0 1.53 1.25 2.78 2.78 2.78h14.72c.42 1.25 1.59 2.17 2.99 2.17 1.75 0 3.17-1.42 3.17-3.17 0-1.39-.91-2.57-2.17-2.99ZM6.26 5.09c.65 0 1.17.53 1.17 1.17S6.9 7.43 6.26 7.43 5.09 6.9 5.09 6.26s.53-1.17 1.17-1.17Zm1 18.87V9.25a3.16 3.16 0 0 0 2-2h14.7c.43 0 .78.35.78.78v14.72c-.94.31-1.67 1.05-1.99 1.99H8.03c-.43 0-.78-.35-.78-.78Zm18.48 2.95c-.64 0-1.16-.52-1.16-1.17s.52-1.16 1.16-1.16 1.17.52 1.17 1.16-.52 1.17-1.17 1.17Z"></path><path d="M13.62 9.13c-.39 0-.72.26-.8.67l-.35 1.88h3.09l-1.33 7.33h2.46c.33 0 .7-.15.81-.71l1.13-6.61h2.23c.39 0 .72-.26.8-.67l.35-1.89h-8.39Z"></path><path d="M18.24 18.44c-.16.81-.75 1.32-1.54 1.32h-2.46c-.22 0-.43-.1-.58-.27-.14-.17-.2-.4-.16-.61l1.07-5.87c-.8-.3-1.58-.49-2.22-.49-.8 0-1.45.22-1.88.74-.3.37-.46.82-.46 1.37 0 1.63 1.28 3.88 3.47 5.72 1.95 1.63 4.1 2.54 5.66 2.54.78 0 1.41-.24 1.82-.71.32-.37.45-.85.45-1.39 0-1.4-1.03-3.3-2.71-4.97l-.45 2.65Z"></path></symbol></defs>
                    <use xlink:href="#TelstraConnect"></use>
                    
                  </svg>