<svg xmlns:xlink="http://www.w3.org/1999/xlink" xmlns="http://www.w3.org/2000/svg" viewBox="0 0 56 56" class="able-picto able-picto--blue" aria-hidden="true" focusable="false" width="56"  height="56" ><path d="M43.14 47.8c-1.11-.71-2.48-.77-3.63-1.4-4.94-2.59-6-8.54-6.75-13.56-.22-1.25-.27-2.06-1.73-2.18v16.53c0 1.55 1.26 2.81 2.81 2.81H44.4c.07-.88-.51-1.72-1.26-2.2Z" class="shadesecondary" fill="#FFDDD1"></path><path d="M25.34 48.95c.61 0 .83-.81.29-1.1-1.26-.7-3.08-1.84-5.59-3.67-5.83-4.24-6.89-10.6-7.42-16.96-.53-6.36 0-8.91-2.65-8.91V44.49c0 3.42.52 4.46 4.45 4.46h10.92Z" class="shadeprimary" fill="#B2E2FB"></path><g class="strokesecondary" stroke="#F96449" fill="none"><rect x="31.1" y="20" width="16" height="30" rx="2" ry="2" stroke="#F96449" fill="none"></rect><path d="M38.53 22h1M37.03 48h4" stroke="#F96449" fill="none"></path></g><g class="strokeprimary" stroke="#0D54FF" fill="none"><path d="M22 47h6M28 49H12.03c-1.1 0-2-.9-2-2V8c0-1.1.9-2 2-2h28c1.1 0 2 .9 2 2v9" stroke="#0D54FF" fill="none"></path></g><circle cx="26.03" cy="8" r=".5" class="strokeprimaryinverted" fill="#0D54FF"></circle></svg>