<svg xmlns:xlink="http://www.w3.org/1999/xlink" xmlns="http://www.w3.org/2000/svg" class="action-icon able-icon" aria-hidden="true" tabindex="-1" focusable="false" width="32"  height="32" ><defs><symbol viewBox="0 0 32 32" id="OnlineReports" xmlns="http://www.w3.org/2000/svg"><path d="M27 5H5a2 2 0 0 0-2 2v14a2 2 0 0 0 2 2h7v2h-1a1 1 0 0 0 0 2h10a1 1 0 0 0 0-2h-1v-2h7a2 2 0 0 0 2-2V7a2 2 0 0 0-2-2Zm-9 20h-4v-2h4Zm9-4H5V7h22Z"></path><path d="M10 18a1 1 0 0 0 1-1v-3a1 1 0 0 0-2 0v3a1 1 0 0 0 1 1Zm4 0a1 1 0 0 0 1-1v-2a1 1 0 0 0-2 0v2a1 1 0 0 0 1 1Zm4 0a1 1 0 0 0 1-1v-6a1 1 0 0 0-2 0v6a1 1 0 0 0 1 1Zm4 0a1 1 0 0 0 1-1v-4a1 1 0 0 0-2 0v4a1 1 0 0 0 1 1Z"></path></symbol></defs>
                    <use xlink:href="#OnlineReports"></use>
                    
                  </svg>