<svg xmlns:xlink="http://www.w3.org/1999/xlink" xmlns="http://www.w3.org/2000/svg" viewBox="0 0 56 56" class="able-picto able-picto--blue" aria-hidden="true" focusable="false" width="56"  height="56" ><g class="shadeprimary" fill="#B2E2FB"><path d="M41.13 32.52c-.42-.62-1.13-.96-1.59-1.56-2.02-2.48-1.23-5.85-.49-8.66.17-.71.32-1.15-.42-1.54l-.03.06-3.7 8.64c-.35.82.03 1.76.84 2.11l2.65 1.14h2.85c-.03-.07-.07-.13-.11-.19ZM22.53 32.26l-.09-.28s-1.14.37-5-.87c-3.87-1.24-5.56-4.46-6.96-7.77-1.4-3.31-1.57-4.77-2.99-4.3l.03.09 4.47 13.59h9.17l1.37-.45ZM30.45 39.46l-2.24-6.2L28 49.17h4.61s2.93-7.3 12.37-7.09v-2.62H30.44ZM10.37 41.17h14.29c.38 0 .72-.17.81-.42l.44-1.18H10.38v1.59Z" fill="#B2E2FB"></path></g><circle cx="14.33" cy="11.11" r=".49" class="strokeprimaryinverted" fill="#0D54FF"></circle><g class="strokeprimary" stroke="#0D54FF" fill="none"><path d="m38.39 32.71-2.89-1.24c-.68-.29-1-1.08-.71-1.77l5.98-13.95c.29-.68 1.08-1 1.77-.71l6.52 2.8c.68.29 1 1.08.71 1.77l-5.57 13M44.94 17.77l.78.34M38.07 30.76l2.35 1M19.37 31.52l3.22-1.05M11.92 32.71 5.79 14.09c-.28-.85.18-1.76 1.03-2.04l14.11-4.64c.85-.28 1.76.18 2.04 1.03l6.53 19.85c.28.85-.18 1.76-1.03 2.04l-7.23 2.38" stroke="#0D54FF" fill="none"></path><path d="M10.82 32.7h17.19v16.47H10.82v-9.32" stroke="#0D54FF" fill="none"></path><path d="M45.15 39.93v9.24H27.99V32.7h17.16" stroke="#0D54FF" fill="none"></path><path d="m10.83 32.71-3.82 6.75h18.57l2.44-6.75H10.83zM45.18 32.71l3.81 6.75H30.45l-2.43-6.75h17.16z" stroke="#0D54FF" fill="none"></path></g><path d="m30.73 15.81-1.96 2.06c-.24.2-.12.32 0 .44l1.75 1.67c.06.06.18.02.18-.08 0-.08-.03-.17-.08-.28-.16-.33-.62-1.5-.24-2.47.38-.97.66-1.15.56-1.33-.07-.12-.15-.07-.2-.01Z" class="shadesecondary" fill="#FFDDD1"></path><g class="strokesecondaryinverted" fill="#F96449"><path d="M31.47 30.79c-.12 0-.24-.04-.34-.12a.54.54 0 0 1-.07-.76c.15-.18.28-.36.4-.54.17-.25.5-.31.75-.14.25.17.31.5.14.75-.14.21-.3.42-.46.62-.11.13-.26.2-.42.2ZM32.7 28.59c-.05 0-.11 0-.16-.03a.542.542 0 0 1-.35-.68c.16-.5.24-1.03.24-1.56 0-.3.24-.57.54-.57.29 0 .53.2.54.5v.04c0 .68-.1 1.31-.29 1.92-.07.23-.28.38-.51.38ZM32.68 25.02c-.23 0-.44-.15-.51-.38-.28-.9-.69-1.48-.7-1.48a.54.54 0 0 1 .12-.75.54.54 0 0 1 .75.12c.02.03.51.71.85 1.79.09.28-.07.59-.35.67-.05.02-.11.02-.16.02Z" fill="#F96449"></path></g><path d="m33.61 17.77-2.7 2.79c-.1.1-.27.09-.39-.02l-2.38-2.28c-.12-.11-.13-.28-.03-.38l3.31-3.43c.11-.12.31-.11.45.02l1.74 1.67c.13.12.18.23.19.35l.02.84c0 .16-.05.27-.21.43Z" class="strokesecondary" stroke="#F96449" fill="none"></path></svg>