<svg xmlns:xlink="http://www.w3.org/1999/xlink" xmlns="http://www.w3.org/2000/svg" viewBox="0 0 56 56" class="able-picto able-picto--blue" aria-hidden="true" focusable="false" width="56"  height="56" ><path d="M19.05 7.57s2.67.18 1.66 1.19-9.24 5.93-9.73 18.21c.48 6.57 3.25 12.8 7.95 17.41 1.75 1.72 3.89 3.47 6.49 5.11l-1.1.44-4.62-.99-2.73-1.84-3.56-2.99-3.23-3.67-3.03-5.61-.83-3.31L6 24.48l1.36-4.56 2.06-3.82 1.87-2.97 3.07-2.46 2.85-2.19 1.85-.92Z" class="shadeprimary" fill="#B2E2FB"></path><g class="strokeprimary" stroke="#0D54FF" fill="none"><path d="M49.99 27.99c0 .54-.02 1.08-.06 1.61-.28 3.9-1.58 7.51-3.63 10.58-3.94 5.91-10.67 9.8-18.31 9.8-.44 0-.87-.01-1.3-.04-.26-.01-.52-.03-.77-.06-8.81-.82-16.11-6.84-18.81-14.96a20.36 20.36 0 0 1-.8-3.21C6.1 30.5 6 29.25 6 27.99c0-4.52 1.36-8.72 3.7-12.22C13.64 9.88 20.36 6 27.99 6c.36 0 .71 0 1.06.03 3.01.14 5.85.89 8.42 2.12 5.48 2.62 9.7 7.44 11.52 13.32.64 2.06.99 4.26.99 6.53Z" stroke="#0D54FF" fill="none"></path><path d="M20.76 26.98c0 .1-.02.2-.02.29-.38 4.89.09 9.58 1.26 13.78.91 3.28 2.25 6.27 3.93 8.84M26.7 49.95c.43.03.86.04 1.3.04 7.64 0 14.37-3.89 18.31-9.8A21.921 21.921 0 0 0 50 28c0-2.27-.35-4.47-.99-6.53-1.82-5.88-6.05-10.7-11.52-13.32a21.841 21.841 0 0 0-8.42-2.12c-2.14 2.48-3.98 5.47-5.38 8.85-.74 1.78-1.37 3.67-1.85 5.65" stroke="#0D54FF" fill="none"></path><path d="M39.61 17.06c-.3-3.21-1.02-6.22-2.14-8.91a21.841 21.841 0 0 0-8.42-2.12c-.35-.02-.7-.03-1.06-.03-7.63 0-14.34 3.88-18.29 9.77C7.36 19.26 6 23.47 6 27.99c0 1.27.11 2.51.31 3.72.19 1.1.46 2.17.8 3.21 2.7 8.12 10 14.14 18.81 14.96M35.24 38.94a41.67 41.67 0 0 0 2.68-6.64c.87-2.83 1.43-5.66 1.68-8.42M26.7 49.95c1.76-1.49 3.42-3.24 4.92-5.22" stroke="#0D54FF" fill="none"></path><path d="M29.93 42.38a40.39 40.39 0 0 1-7.94-1.33c-5.55-1.51-10.35-4.13-13.9-7.47-.64-.6-1.23-1.22-1.78-1.86C6.1 30.51 6 29.26 6 28c0-4.52 1.36-8.72 3.7-12.22 3.94-5.89 10.66-9.77 18.29-9.77.36 0 .71 0 1.06.03 3.01.14 5.85.89 8.42 2.12 5.48 2.62 9.7 7.44 11.52 13.32a22.011 22.011 0 0 1 .93 8.14c-.28 3.9-1.58 7.51-3.63 10.58-2.96 1.08-6.21 1.81-9.64 2.13" stroke="#0D54FF" fill="none"></path><path d="M36.83 18.71a40.743 40.743 0 0 0-7.8-2.83c-1.8-.46-3.6-.79-5.36-1-4.96-.6-9.74-.25-13.96.9-2.34 3.49-3.7 7.7-3.7 12.22 0 1.27.11 2.51.31 3.72.19 1.1.46 2.17.8 3.21 2.7 8.12 10 14.14 18.81 14.96M26.7 49.95c.43.03.86.04 1.3.04 7.64 0 14.37-3.89 18.31-9.8 2.05-3.07 3.34-6.68 3.63-10.58-1.83-2.7-4.28-5.21-7.23-7.38" stroke="#0D54FF" fill="none"></path><path d="M18.03 25.15c-4.06 2.31-7.44 5.21-9.93 8.43-.34.44-.67.89-.98 1.35 2.7 8.12 10 14.14 18.81 14.96M36.41 19.83c-2.91.14-5.91.61-8.93 1.43-1.11.3-2.19.65-3.25 1.03M26.7 49.95c.43.03.86.04 1.3.04 7.64 0 14.37-3.89 18.31-9.8A21.921 21.921 0 0 0 50 28c0-2.27-.35-4.47-.99-6.53a31.51 31.51 0 0 0-5.84-1.35" stroke="#0D54FF" fill="none"></path><path d="M26.7 49.95c.43.03.86.04 1.3.04 7.64 0 14.37-3.89 18.31-9.8A21.921 21.921 0 0 0 50 28c0-2.27-.35-4.47-.99-6.53-1.82-5.88-6.05-10.7-11.52-13.32a21.841 21.841 0 0 0-8.42-2.12c-.35-.02-.7-.03-1.06-.03-7.63 0-14.34 3.88-18.29 9.77-2.34 3.49-3.7 7.7-3.7 12.22 0 1.27.11 2.51.31 3.72.19 1.1.46 2.17.8 3.21 2.7 8.12 10 14.14 18.81 14.96" stroke="#0D54FF" fill="none"></path></g><g class="shadesecondary" fill="#FFDDD1"><path d="M22.45 21.24s.27.6-.48.96-2.26.53-2.24 1.55.88 1.9 1.26 2.01.48 1.11.48 1.11l-2.46-.41-1.08-1.45-.15-1.73.51-1.28 1.08-.97 1.62-.53.59.05.87.68ZM41.01 17.66s.27.6-.48.96-2.26.53-2.24 1.55.88 1.9 1.26 2.01.48 1.11.48 1.11l-2.46-.41-1.08-1.45-.15-1.73.51-1.28 1.08-.97 1.62-.53.59.05.87.68ZM34.29 39.06s.27.6-.48.96-2.26.53-2.24 1.55.88 1.9 1.26 2.01.48 1.11.48 1.11l-2.46-.41-1.08-1.45-.15-1.73.51-1.28 1.08-.97 1.62-.53.59.05.87.68Z" fill="#FFDDD1"></path></g><g class="strokesecondary" stroke="#F96449" fill="none"><path d="M24.62 23.89c0 1.89-1.53 3.42-3.42 3.42s-3.42-1.53-3.42-3.42 1.53-3.42 3.42-3.42 3.42 1.53 3.42 3.42ZM43.18 20.47c0 1.89-1.53 3.42-3.42 3.42s-3.42-1.53-3.42-3.42 1.53-3.42 3.42-3.42 3.42 1.53 3.42 3.42ZM36.71 41.75c0 1.89-1.53 3.42-3.42 3.42s-3.42-1.53-3.42-3.42 1.53-3.42 3.42-3.42 3.42 1.53 3.42 3.42Z" stroke="#F96449" fill="none"></path></g></svg>