<svg xmlns:xlink="http://www.w3.org/1999/xlink" xmlns="http://www.w3.org/2000/svg" class="action-icon able-icon" aria-hidden="true" tabindex="-1" focusable="false" width="32"  height="32" ><defs><symbol viewBox="0 0 32 32" id="Enterprise" xmlns="http://www.w3.org/2000/svg"><path d="M28 10h-1V8a1 1 0 0 0-1-1h-1.5V6a1 1 0 0 0-2 0v1H21a1 1 0 0 0-1 1v2h-1a1 1 0 0 0-1 1v3h-4V9a1 1 0 0 0-1-1h-1V6a1 1 0 0 0-1-1H9.5V4a1 1 0 0 0-2 0v1H6a1 1 0 0 0-1 1v2H4a1 1 0 0 0-1 1v19a1 1 0 0 0 1 1h24a1 1 0 0 0 1-1V11a1 1 0 0 0-1-1Zm-6-1h3v1h-3ZM7 7h3v1H7Zm-2 3h7v17H5Zm9 6h7v11h-7Zm13 11h-4V15a1 1 0 0 0-1-1h-2v-2h7Z"></path><path d="M9.89 12.35a.65.65 0 0 0-.65.65v11a.65.65 0 1 0 1.3 0V13a.65.65 0 0 0-.65-.65Zm-2.78 0a.65.65 0 0 0-.65.65v11a.65.65 0 0 0 1.3 0V13a.65.65 0 0 0-.65-.65Z"></path><circle cx="16.13" cy="24.5" r=".75"></circle><circle cx="18.88" cy="24.5" r=".75"></circle><circle cx="16.13" cy="21.5" r=".75"></circle><circle cx="18.88" cy="21.5" r=".75"></circle><circle cx="16.13" cy="18.5" r=".75"></circle><circle cx="18.88" cy="18.5" r=".75"></circle></symbol></defs>
                    <use xlink:href="#Enterprise"></use>
                    
                  </svg>