<svg xmlns:xlink="http://www.w3.org/1999/xlink" xmlns="http://www.w3.org/2000/svg" viewBox="0 0 56 56" class="able-picto able-picto--blue" aria-hidden="true" focusable="false" width="56"  height="56" ><g class="shadeprimary" fill="#B2E2FB"><path d="M11.38 35.01s1.44-1.4 2.38 1.4c.93 2.79 3.2 6.46 7.22 8.15 4.02 1.69 7.72 4.35 7.38 6.17-4.2-2.17-16.78-8.98-16.78-8.98l-.2-6.74Z" fill="#B2E2FB"></path></g><g class="strokeprimary" stroke="#0D54FF" fill="none"><path d="M36.51 12.27h6.93c.85 0 1.54.69 1.54 1.54v27.2c0 .58-.32 1.11-.83 1.37l-15.44 7.98c-.44.23-.97.23-1.41 0l-15.44-7.98c-.51-.26-.83-.79-.83-1.37v-27.2c0-.85.69-1.54 1.54-1.54h7.08" stroke="#0D54FF" fill="none"></path><path d="M23.36 12.27h9.36" stroke="#0D54FF" fill="none"></path></g><g class="shadesecondary" fill="#FFDDD1"><path d="M15.74 24.81c0-.29.57-.7.82-.73 1.43-.16 1.71 5.01 1.96 6.04.45 1.79.86 3.89 2.16 5.28 1.18 1.27 2.9 1.85 4.58 2.05 1.45.17 3.45.36 4.95.65 1.69.32 2.16 2.17-.04 2.17H18.09s-2.35-.29-2.35-2.81V24.81" fill="#FFDDD1"></path><path d="M28 24.3c-1.72 0-3.11 1.39-3.11 3.11 0 1.1.57 2.06 1.43 2.62v2.18c0 1.17.5 2.13 1.67 2.13H28c1.17 0 1.67-.96 1.67-2.13v-2.18c.86-.55 1.43-1.52 1.43-2.62 0-1.72-1.39-3.11-3.11-3.11h-.01Z" fill="#FFDDD1"></path></g><g class="strokesecondary" stroke="#F96449" fill="none"><path d="M15.77 36.99c0 1.81 1.48 3.28 3.28 3.28h17.93c1.81 0 3.28-1.48 3.28-3.28V22.65c0-1.81-1.48-3.28-3.28-3.28H19.05c-1.8 0-3.28 1.48-3.28 3.28v14.34Z" stroke="#F96449" fill="none"></path><path d="M28 24.3c-1.72 0-3.11 1.39-3.11 3.11 0 1.1.57 2.06 1.43 2.62v2.18c0 1.17.5 2.13 1.67 2.13H28c1.17 0 1.67-.96 1.67-2.13v-2.18c.86-.55 1.43-1.52 1.43-2.62 0-1.72-1.39-3.11-3.11-3.11h-.01Z" stroke="#F96449" fill="none"></path><path d="M19.44 19.37v-5.21c0-4.81 3.93-8.88 8.74-8.82 4.69.06 8.5 3.92 8.5 8.62v5.41h-3.63V14.1c0-2.68-2.06-5-4.74-5.13a4.994 4.994 0 0 0-5.24 4.99v5.41h-3.63Z" stroke="#F96449" fill="none"></path></g></svg>