<svg xmlns:xlink="http://www.w3.org/1999/xlink" xmlns="http://www.w3.org/2000/svg" class="action-icon able-icon" aria-hidden="true" tabindex="-1" focusable="false" width="32"  height="32" ><defs><symbol viewBox="0 0 32 32" id="Help" xmlns="http://www.w3.org/2000/svg"><path d="M16 3a13 13 0 1 0 13 13A13 13 0 0 0 16 3Zm0 24a11 11 0 1 1 11-11 11 11 0 0 1-11 11Z"></path><path d="M16 8a4.67 4.67 0 0 0-4.63 4.7 1 1 0 0 0 2 0A2.7 2.7 0 0 1 16 10a2.59 2.59 0 1 1 0 5.18 1 1 0 0 0-1 1V19a1 1 0 1 0 2 0v-1.93A4.59 4.59 0 0 0 16 8Zm0 13.9a1.1 1.1 0 1 0 1.1 1.1 1.1 1.1 0 0 0-1.1-1.1Z"></path></symbol></defs>
                    <use xlink:href="#Help"></use>
                    
                  </svg>